<!DOCTYPE svg PUBLIC "-//W3C//DTD SVG 1.1//EN" "http://www.w3.org/Graphics/SVG/1.1/DTD/svg11.dtd">
<!-- Uploaded to: SVG Repo, www.svgrepo.com, Transformed by: SVG Repo Mixer Tools -->
<svg fill="#9e8c15" version="1.1" id="Capa_1" xmlns="http://www.w3.org/2000/svg" xmlns:xlink="http://www.w3.org/1999/xlink" width="800px" height="800px" viewBox="0 0 567.453 567.454" xml:space="preserve" stroke="#9e8c15">
<g id="SVGRepo_bgCarrier" stroke-width="0"/>
<g id="SVGRepo_tracerCarrier" stroke-linecap="round" stroke-linejoin="round"/>
<g id="SVGRepo_iconCarrier"> <g> <g> <path d="M564.055,322.968c-3.007-2.896-7.45-14.146-10.433-17.071c-0.371-0.362-0.702-1.081-0.616-1.559 c0.865-4.789-1.938-7.988-4.766-11.167c-1.938-2.183-3.945-4.308-5.997-6.54c5.193-3.145,6.81-8.27,7.931-13.676 c0.017-0.073-0.004-0.155,0.009-0.232c0.648-4.337,0.669-3.831-3.819-3.651c-6.728,0.265-12.762,2.59-18.96,4.72 c-2.235,0.767-4.863,0.543-7.311,0.522c-3.717-0.033-7.43-0.298-11.146-0.433c-4.713-0.171-9.425-0.461-14.138-0.437 c-11.322,0.061-22.64,0.351-33.958,0.4c-4.549,0.021-9.114-0.188-13.647-0.587c-4.056-0.359-8.103-1.747-12.109-1.591 c-11.583,0.449-22.771-1.648-33.925-4.239c-11.841-2.754-23.542-6.434-35.525-8.115c-9.437-1.326-19.212-0.241-28.833-0.191 c-1.22,0.004-2.444,0.277-3.664,0.293c-17.291,0.237-34.329,2.097-50.591,8.413c-7.226,2.807-14.329,5.924-21.461,8.972 l-0.167,0.84c-1.922-1.555-3.823-3.142-5.741-4.704c-7.299-5.953-14.59-11.918-21.914-17.83 c-9.686-7.822-19.437-15.541-29.09-23.411c-9.307-7.589-20.208-11.559-30.29-17.381c-1.954-1.126-4.063-1.917-6.128-2.779 c-6.397-2.664-12.999-4.202-19.805-4.806c-5.948-0.53-11.873-1.424-17.817-2.06c-5.442-0.583-10.901-1.004-16.348-1.551 c-5.047-0.51-10.09-1.061-15.133-1.648c-5.867-0.682-11.747-1.257-17.585-2.175c-7.923-1.245-15.838-2.595-23.705-4.223 c-7.964-1.648-15.745-4.174-22.408-9.658c-4.137-3.407-8.4-6.523-11.799-11.224c-2.244-3.101-6.316-4.631-9.739-6.455 c-2.66-1.419-5.679-0.089-7.442,2.628c-0.408,0.628-0.881,1.212-1.208,1.885c-1.383,2.84-3.17,5.561-3.954,8.609 c-0.759,2.946-0.331,6.259-0.665,9.376c-0.775,7.213,1.444,13.807,3.513,20.286c1.787,5.602,6.079,9.388,10.372,12.342 c6.022,4.142,12.489,7.479,18.895,10.853c4.806,2.534,9.763,4.712,14.741,6.797c3.032,1.269,6.169,2.497,9.347,2.954 c4.651,0.669,9.384,0.657,14.08,0.894c7.475,0.375,14.966,0.518,22.428,1.134c4.778,0.396,9.592,1.081,14.251,2.301 c11.232,2.938,22.453,5.981,33.542,9.535c8.229,2.636,16.234,6.157,24.349,9.25c6.169,2.354,11.542,6.446,17.104,10.106 c6.071,3.994,12.081,8.131,17.952,12.492c13.052,9.694,27.005,17.394,41.265,24.436c3.537,1.746,7.087,3.464,10.628,5.202 l-0.314,1.55c0.481,0.18,0.869,1.433,0.8,2.158c-0.665,6.826,2.603,11.746,7.491,15.937c0.649,0.555,1.224,1.191,1.82,1.808 c1.914,1.987,1.767,2.529,0.021,4.606c-2.554,3.039-5.847,4.59-9.572,5.508c-0.388,0.094-0.971,0.465-1.003,0.759 c-0.73,6.495-2.856,13.052-0.355,19.494c1.105,2.84,3.186,5.329,4.981,7.866c1.844,2.607,3.696,5.26,5.888,7.564 c2.362,2.489,5.349,4.395,7.633,6.937c2.154,2.395,4.921,3.822,7.703,4.377c4.231,0.845,8.669,0.739,13.023,0.796 c0.95,0.013,1.901-0.069,2.856-0.188l-0.029,0.102c0.009,0,0.041-0.004,0.103-0.012c0.073-0.004,0.184-0.008,0.322-0.017 c0.285-0.012,0.701-0.017,1.207-0.012c1.008,0.008,2.367,0.064,3.701,0.236c1.334,0.167,2.636,0.465,3.513,0.905 c0.221,0.11,0.412,0.225,0.571,0.348c0.159,0.118,0.294,0.24,0.384,0.354c0.199,0.225,0.257,0.404,0.269,0.4 c0,0,0.005-0.045,0.013-0.131s0.021-0.217,0-0.38c-0.008-0.171-0.058-0.371-0.127-0.6c-0.073-0.229-0.179-0.481-0.317-0.742 c-0.139-0.266-0.311-0.539-0.507-0.812c-0.195-0.281-0.416-0.555-0.652-0.836c-0.363-0.425-0.767-0.849-1.188-1.253 c0.779,0.033,1.648,0.094,2.505,0.204c1.335,0.167,2.636,0.465,3.514,0.906c0.22,0.109,0.412,0.224,0.571,0.347 c0.158,0.118,0.293,0.24,0.383,0.354c0.2,0.225,0.257,0.404,0.27,0.4c0,0,0.004-0.045,0.013-0.131c0.008-0.086,0.02-0.216,0-0.38 c-0.009-0.171-0.058-0.371-0.127-0.6c-0.073-0.229-0.18-0.481-0.318-0.742c-0.139-0.266-0.31-0.539-0.506-0.812 c-0.195-0.281-0.416-0.555-0.652-0.836c-0.478-0.559-1.024-1.114-1.592-1.636c-0.751-0.694-1.525-1.326-2.244-1.881 c1.122,0.175,2.184,0.448,2.93,0.824c0.221,0.109,0.412,0.224,0.571,0.347c0.159,0.118,0.294,0.24,0.384,0.354 c0.199,0.225,0.257,0.404,0.27,0.4c0,0,0.004-0.045,0.012-0.131s0.021-0.217,0-0.38c-0.008-0.171-0.057-0.371-0.127-0.6 c-0.073-0.229-0.179-0.481-0.317-0.742c-0.139-0.266-0.311-0.539-0.506-0.812c-0.196-0.281-0.417-0.555-0.653-0.836 c-0.478-0.559-1.024-1.114-1.591-1.636c-0.457-0.421-0.918-0.816-1.379-1.191c-0.453-0.515-1.049-0.972-1.571-1.485 c-3.48-3.423-7.274-1.167-10.886-0.551c-1.146,0.195-1.934,0.273-2.803-0.376c-2.023-1.514-4.046-3.031-6.36-4.765 c3.509-1.702,6.601-3.256,9.743-4.709c5.386-2.497,10.767-4.998,16.21-7.364c2.773-1.203,5.646-2.207,8.539-3.101 c0.824-0.253,2.325-0.114,2.692,0.416c0.474,0.686,0.331,1.995,0.086,2.941c-0.808,3.158-1.799,6.268-2.656,9.413 c-0.098,0.367,0.09,0.922,0.331,1.248c1.42,1.938,2.852,3.868,4.365,5.732c2.244,2.774,5.194,4.586,8.642,5.288 c6.111,1.24,12.248,2.415,18.425,3.247c5.777,0.779,11.616,1.086,17.426,1.596c0.519,0.045,1.073-0.032,1.555,0.122 c2.003,0.645,3.799,0.453,5.186-0.452c0.947,0.032,2.085,0.102,3.207,0.257c0.682,0.094,1.358,0.216,1.971,0.375 c0.306,0.082,0.604,0.168,0.873,0.266c0.273,0.094,0.522,0.204,0.747,0.318c0.224,0.114,0.42,0.236,0.583,0.358 c0.159,0.127,0.302,0.249,0.392,0.367c0.103,0.114,0.167,0.221,0.204,0.294c0.045,0.073,0.065,0.114,0.065,0.114 s0.004-0.045,0.012-0.131c0.009-0.09,0.017-0.22-0.004-0.388c-0.008-0.175-0.061-0.379-0.135-0.611 c-0.073-0.232-0.184-0.49-0.33-0.759c-0.143-0.27-0.318-0.551-0.522-0.828c-0.199-0.286-0.428-0.567-0.673-0.849 c-0.404-0.47-0.861-0.931-1.334-1.38c0.836,0.037,1.782,0.11,2.721,0.237c0.682,0.094,1.359,0.216,1.971,0.375 c0.307,0.082,0.604,0.167,0.873,0.266c0.273,0.094,0.522,0.204,0.747,0.318s0.42,0.236,0.583,0.358 c0.159,0.127,0.302,0.249,0.392,0.367c0.103,0.114,0.168,0.221,0.204,0.294c0.045,0.073,0.065,0.114,0.065,0.114 s0.004-0.045,0.013-0.131c0.008-0.09,0.016-0.22-0.004-0.388c-0.009-0.175-0.062-0.379-0.131-0.611 c-0.073-0.232-0.184-0.49-0.331-0.759c-0.143-0.27-0.317-0.551-0.521-0.828c-0.2-0.286-0.429-0.567-0.674-0.849 c-0.489-0.567-1.053-1.131-1.636-1.661c-0.775-0.706-1.583-1.358-2.317-1.922c0.114-0.008,0.232-0.016,0.354-0.028 c0.372,0.069,0.734,0.143,1.077,0.232c0.307,0.082,0.604,0.168,0.873,0.266c0.273,0.094,0.522,0.204,0.747,0.318 s0.42,0.236,0.583,0.358c0.159,0.127,0.303,0.249,0.392,0.367c0.103,0.114,0.168,0.221,0.204,0.294 c0.045,0.073,0.065,0.114,0.065,0.114s0.004-0.045,0.013-0.131c0.008-0.089,0.016-0.22-0.004-0.387 c-0.009-0.176-0.062-0.38-0.135-0.612c-0.074-0.232-0.184-0.49-0.331-0.759c-0.143-0.27-0.318-0.551-0.521-0.828 c-0.2-0.286-0.429-0.567-0.674-0.849c-0.489-0.567-1.053-1.131-1.636-1.661c-1.167-1.064-2.416-2.016-3.379-2.701 c-0.48-0.343-0.893-0.62-1.187-0.815c-0.151-0.098-0.273-0.172-0.355-0.225c-0.094-0.057-0.146-0.086-0.139-0.082l-0.012,0.041 c-0.029-0.012-0.054-0.024-0.086-0.032c-1.795-0.311-3.692-0.131-5.545-0.041c-7.417,0.355-14.896,1.424-22.04-2.22 c3.239-5.287,6.01-10.783,7.079-16.944c0.689-3.978,1.24-7.988,1.685-12.003c0.388-3.488,0.979-3.908,4.61-3.048 c1.122,0.266,2.354,0.049,3.537,0.106c2.6,0.122,5.211,0.188,7.797,0.444c3.632,0.367,7.238,0.946,10.869,1.317 c1.596,0.164,3.224,0.029,4.79,0.029c-0.277,4.39-0.6,8.519-0.779,12.656c-0.224,5.096-0.547,10.204-0.407,15.292 c0.098,3.635,0.656,7.303,1.432,10.864c0.987,4.533,4.599,6.565,8.683,7.789c2.333,0.697,4.794,1.746,7.115,1.562 c4.753-0.375,9.653,0.747,14.28-1.269c0.791-0.343,1.718-0.371,2.591-0.526c0.726,0.028,1.673,0.098,2.603,0.245 c0.972,0.15,1.914,0.399,2.546,0.742c0.159,0.086,0.294,0.176,0.408,0.265c0.114,0.09,0.212,0.184,0.273,0.27 c0.139,0.168,0.18,0.298,0.188,0.294c-0.008,0,0.028-0.131,0-0.371c-0.008-0.122-0.045-0.266-0.102-0.433 c-0.058-0.163-0.135-0.347-0.241-0.53c-0.416-0.755-1.199-1.592-2.036-2.326l-0.004-0.004c0.665,0.037,1.453,0.106,2.236,0.229 c0.971,0.151,1.913,0.4,2.546,0.743c0.159,0.085,0.293,0.175,0.407,0.265s0.213,0.184,0.273,0.27 c0.139,0.167,0.18,0.298,0.188,0.294c-0.009,0,0.028-0.131,0-0.371c-0.009-0.123-0.045-0.266-0.103-0.433 c-0.057-0.163-0.135-0.347-0.24-0.53c-0.417-0.755-1.2-1.592-2.036-2.326c-0.727-0.641-1.485-1.212-2.122-1.66 c0.054,0.008,0.106,0.012,0.155,0.021c0.971,0.15,1.914,0.399,2.546,0.742c0.159,0.086,0.294,0.176,0.408,0.266 c0.114,0.089,0.212,0.184,0.273,0.269c0.139,0.168,0.18,0.298,0.188,0.294c-0.008,0,0.028-0.131,0-0.371 c-0.008-0.122-0.045-0.266-0.102-0.433c-0.058-0.163-0.135-0.347-0.241-0.53c-0.314-0.571-0.845-1.191-1.444-1.779 c0.326-0.285,0.951-0.306,1.428-0.457c-0.534-1.677-0.673-1.338-4.961-3.104c-2.126-0.873-3.945-2.121-6.405-1.918 c-2.228,0.184-4.484,0.041-6.729,0.041c-2.023-6.373,0.604-11.615,3.651-16.675c2.371-3.938,5.133-7.642,7.569-11.546 c0.759-1.217,1.407-1.18,2.623-0.882c6.409,1.559,10.311,6.022,13.357,11.416c2.734,4.843,5.32,9.775,7.851,14.729 c0.6,1.175,0.652,2.615,1.053,3.904c0.175,0.567,0.465,1.221,0.914,1.571c4.561,3.558,9.388,6.813,13.7,10.645 c4.732,4.207,10.127,5.161,16.067,4.676c5.871-0.481,11.746-0.922,17.593-1.604c0.057-0.008,0.114-0.017,0.175-0.028 c0.11,0.004,0.225,0.004,0.352,0.012c0.734,0.029,1.726,0.099,2.692,0.253c0.972,0.151,1.914,0.4,2.546,0.743 c0.159,0.086,0.294,0.175,0.408,0.265s0.212,0.184,0.273,0.27c0.139,0.167,0.18,0.298,0.188,0.294c-0.008,0,0.028-0.131,0-0.371 c-0.008-0.123-0.045-0.266-0.102-0.433c-0.058-0.163-0.135-0.347-0.241-0.53c-0.416-0.755-1.199-1.596-2.036-2.326l-0.004-0.004 c0.665,0.037,1.453,0.103,2.232,0.229c0.971,0.151,1.913,0.4,2.546,0.742c0.159,0.086,0.293,0.176,0.407,0.266 s0.213,0.184,0.273,0.27c0.139,0.167,0.18,0.298,0.188,0.294c-0.008,0,0.029-0.131,0-0.372c-0.008-0.122-0.044-0.265-0.102-0.432 c-0.057-0.164-0.135-0.348-0.24-0.531c-0.417-0.755-1.2-1.591-2.036-2.325c-0.727-0.641-1.485-1.212-2.122-1.66 c0.054,0.008,0.106,0.012,0.155,0.02c0.971,0.151,1.913,0.4,2.546,0.743c0.159,0.086,0.294,0.175,0.408,0.265 s0.212,0.184,0.273,0.27c0.139,0.167,0.18,0.298,0.188,0.294c-0.008,0,0.028-0.131,0-0.371c-0.008-0.123-0.045-0.266-0.102-0.433 c-0.058-0.163-0.135-0.347-0.241-0.53c-0.416-0.755-1.199-1.596-2.036-2.326c-0.836-0.738-1.729-1.399-2.419-1.872 c-0.241-0.163-0.453-0.307-0.633-0.425c-3.464-2.606-7.471-3.288-12.162-2.391c-3.068,0.588-6.283,0.465-9.434,0.53 c-1.57,0.033-3.684-2.097-3.603-3.655c0.396-7.397,0.706-14.807,1.408-22.179c0.379-3.99,1.379-7.932,2.293-11.853 c0.298-1.285,1.072-2.53,1.86-3.623c2.391-3.33,4.761-6.691,7.438-9.792c0.812-0.942,2.57-1.469,3.904-1.485 c4.17-0.049,8.34,0.33,12.51,0.354c2.925,0.017,5.851-0.326,8.78-0.416c2.432-0.073,4.867-0.045,7.299,0.004 c0.661,0.013,1.555,0.062,1.93,0.474c1.738,1.889,3.126-1.077,5.275-1.004c4.447,0.151,9.058-0.673,13.317,0.237 c4.953,1.061,3.272,3.309,8.151,3.488c5.391,0.199,15.37,3.088,17.361-1.849c1.403-3.48,3.517-3.582,3.562-7.132 c0.004-0.44-0.71-0.877-0.665-1.049C565.837,324.816,564.98,323.857,564.055,322.968z"/> </g> </g> </g>
</svg>