<?xml version="1.0" ?><!-- Uploaded to: SVG Repo, www.svgrepo.com, Generator: SVG Repo Mixer Tools -->
<svg width="800px" height="800px" viewBox="0 0 50 50" data-name="Layer 1" id="Layer_1" xmlns="http://www.w3.org/2000/svg"><defs><style>.cls-1{fill:#f7d2d0;}.cls-2{fill:#231f20;}.cls-3{fill:#ffba50;}.cls-4{fill:#8d7f89;}.cls-5{fill:#e57e70;}</style></defs><title/><path class="cls-1" d="M24.218,45.5a.5.5,0,0,0,.5-.5V39.784a2.465,2.465,0,0,0-2.463-2.463H21.146a2.3,2.3,0,0,1-2.3-2.3V31.667a1.561,1.561,0,0,0-1.559-1.56h-.936a.669.669,0,0,1-.642-.851l3.78-13.266c1.8-4.415,8.17-7.029,12.65-6.413.279.038.562.085.843.139a14.35,14.35,0,0,1,7.227,24.3,7.269,7.269,0,0,0-2.225,5.2V45a.5.5,0,0,0,.5.5Z"/><path class="cls-2" d="M15.551,19.442v-.861a1.2,1.2,0,0,0-1.026-1.176,3.343,3.343,0,0,1,.957-2.176,6.357,6.357,0,0,0-.576-9.279A6.392,6.392,0,0,0,9.588,4.624a6.358,6.358,0,0,0-3.349,10.6A3.353,3.353,0,0,1,7.2,17.405a1.2,1.2,0,0,0-1.026,1.176v.861a1.215,1.215,0,0,0,1.213,1.214H7.44a3.437,3.437,0,0,0,6.842,0h.056A1.215,1.215,0,0,0,15.551,19.442Z"/><path class="cls-3" d="M5.584,9.892a5.318,5.318,0,0,1,4.2-4.287,5.408,5.408,0,0,1,4.489,1.117,5.354,5.354,0,0,1,.486,7.819,4.343,4.343,0,0,0-1.226,2.826H11.361V15.414a1.746,1.746,0,1,0-1,0v1.953H8.194a4.346,4.346,0,0,0-1.229-2.828A5.358,5.358,0,0,1,5.584,9.892Z"/><path class="cls-3" d="M10.861,14.5a.747.747,0,1,1,.747-.746A.747.747,0,0,1,10.861,14.5Z"/><rect class="cls-4" height="1.289" rx="0.213" width="7.38" x="7.171" y="18.367"/><path class="cls-4" d="M10.861,22.761A2.454,2.454,0,0,1,8.44,20.656h4.842A2.453,2.453,0,0,1,10.861,22.761Z"/><path class="cls-2" d="M37.191,29.167h-.014l-.123-.016a.5.5,0,0,0-.445.207.5.5,0,0,0-.054.488l1.412,3.308a.5.5,0,1,0,.92-.393l-1.123-2.629a3.706,3.706,0,0,0,3-3.727,3.6,3.6,0,0,0-.076-.728,3.837,3.837,0,0,0,1.193-2.816,3.658,3.658,0,0,0-3.527-3.77,2.963,2.963,0,0,0-.36.023,4.008,4.008,0,0,0-3.767-2.921,3.758,3.758,0,0,0-2.336.815,3.234,3.234,0,0,0-5.467,0,3.842,3.842,0,0,0-3.981,2.157A3.036,3.036,0,0,0,19.9,22.245,3.229,3.229,0,0,0,20.5,24.12a3.943,3.943,0,0,0-.421,1.784A3.659,3.659,0,0,0,23.6,29.673a3.335,3.335,0,0,0,2.273-.9,3.452,3.452,0,0,0,4.312,1.452,3.391,3.391,0,0,0,3.84,1.682l1.752,2.6a.5.5,0,0,0,.83-.558l-1.964-2.916a.5.5,0,0,0-.6-.185,2.345,2.345,0,0,1-2.989-1.127,7.725,7.725,0,0,1,3.352-1.064.5.5,0,0,0,.461-.536.49.49,0,0,0-.537-.461,8.617,8.617,0,0,0-4.17,1.446c-.009,0-.02,0-.029.011A2.471,2.471,0,0,1,26.48,27.71c0-.006-.008-.009-.01-.014a7.04,7.04,0,0,0-.483-1.12,2.3,2.3,0,0,0,.613-2.182.5.5,0,1,0-.959.28,1.3,1.3,0,0,1-.229,1.054A2.85,2.85,0,0,0,23.894,24.7a.491.491,0,0,0-.568.4.506.506,0,0,0,.391.584c.044.009,1.012.26,1.712,2.092a2.394,2.394,0,0,1-1.827.9A2.66,2.66,0,0,1,21.074,25.9a2.947,2.947,0,0,1,.445-1.568.5.5,0,0,0-.053-.6,2.221,2.221,0,0,1-.565-1.491,2.023,2.023,0,0,1,1.886-2.112.5.5,0,0,0,.445-.3,2.97,2.97,0,0,1,2.676-1.868,2.743,2.743,0,0,1,.646.084.5.5,0,0,0,.559-.25,2.234,2.234,0,0,1,4.03-.055,3.769,3.769,0,0,0-.892,1.561,2.594,2.594,0,0,0-1.909.671.5.5,0,0,0,.7.71,1.566,1.566,0,0,1,1.063-.39,3.413,3.413,0,0,0,.232,1.288.5.5,0,0,0,.923-.385,2.726,2.726,0,0,1,.829-3.013.215.215,0,0,0,.018-.024c.006,0,.014-.007.019-.012a2.824,2.824,0,0,1,2.1-.955,3.05,3.05,0,0,1,2.9,2.6.5.5,0,0,0,.62.392,2.326,2.326,0,0,1,.6-.09,2.66,2.66,0,0,1,2.527,2.77,2.877,2.877,0,0,1-.554,1.7A3.273,3.273,0,0,0,38.469,22.9a4.373,4.373,0,0,0-3.707.322.5.5,0,0,0,.6.8,2.593,2.593,0,0,1,1.219-.358,1.442,1.442,0,0,1-.677,1.454.5.5,0,0,0,.494.87,2.409,2.409,0,0,0,1.188-2.282,3,3,0,0,1,.537.136,2.307,2.307,0,0,1,1.52,1.764l0,.013v.007a2.978,2.978,0,0,1,.115.778A2.659,2.659,0,0,1,37.191,29.167Z"/><path class="cls-2" d="M45.344,21.574A15.428,15.428,0,0,0,33.177,8.735c-.3-.059-.6-.108-.9-.149-4.858-.66-11.684,2.058-13.73,7.078l-3.8,13.318a1.667,1.667,0,0,0,1.6,2.124h.936a.561.561,0,0,1,.559.561v3.358a3.3,3.3,0,0,0,3.3,3.3h1.109a1.465,1.465,0,0,1,1.463,1.463V45a.5.5,0,0,0,1,0V39.784a2.465,2.465,0,0,0-2.463-2.463H21.146a2.3,2.3,0,0,1-2.3-2.3V31.667a1.561,1.561,0,0,0-1.559-1.561h-.936a.668.668,0,0,1-.642-.85l3.78-13.266c1.8-4.415,8.17-7.029,12.65-6.413.279.038.562.085.843.139a14.35,14.35,0,0,1,7.227,24.3,7.269,7.269,0,0,0-2.225,5.2V45a.5.5,0,0,0,1,0V39.218a6.273,6.273,0,0,1,1.927-4.487A15.3,15.3,0,0,0,45.344,21.574Z"/><path class="cls-5" d="M34.664,23.925a.5.5,0,0,0,.7.1,2.593,2.593,0,0,1,1.219-.358,1.442,1.442,0,0,1-.677,1.454.5.5,0,0,0,.494.87,2.409,2.409,0,0,0,1.188-2.282,3,3,0,0,1,.537.136,2.307,2.307,0,0,1,1.52,1.764l0,.013v.007a2.978,2.978,0,0,1,.115.778,2.659,2.659,0,0,1-2.574,2.762h-.014l-.123-.016a.5.5,0,0,0-.445.207.5.5,0,0,0-.054.488l1.412,3.308a.518.518,0,0,0,.077.112,4.637,4.637,0,0,1-1.422.716c-.006-.01-.006-.022-.013-.032l-1.964-2.916a.5.5,0,0,0-.6-.185,2.345,2.345,0,0,1-2.989-1.127,7.725,7.725,0,0,1,3.352-1.064.5.5,0,0,0,.461-.536.49.49,0,0,0-.537-.461,8.617,8.617,0,0,0-4.17,1.446c-.009,0-.02,0-.029.011A2.471,2.471,0,0,1,26.48,27.71c0-.006-.008-.009-.01-.014a7.04,7.04,0,0,0-.483-1.12,2.3,2.3,0,0,0,.613-2.182.5.5,0,1,0-.959.28,1.3,1.3,0,0,1-.229,1.054A2.85,2.85,0,0,0,23.894,24.7a.491.491,0,0,0-.568.4.506.506,0,0,0,.391.584c.044.009,1.012.26,1.712,2.092a2.394,2.394,0,0,1-1.827.9A2.66,2.66,0,0,1,21.074,25.9a2.947,2.947,0,0,1,.445-1.568.5.5,0,0,0-.053-.6,2.221,2.221,0,0,1-.565-1.491,2.023,2.023,0,0,1,1.886-2.112.5.5,0,0,0,.445-.3,2.97,2.97,0,0,1,2.676-1.868,2.743,2.743,0,0,1,.646.084.5.5,0,0,0,.559-.25,2.234,2.234,0,0,1,4.03-.055,3.769,3.769,0,0,0-.892,1.561,2.594,2.594,0,0,0-1.909.671.5.5,0,0,0,.7.71,1.566,1.566,0,0,1,1.063-.39,3.413,3.413,0,0,0,.232,1.288.5.5,0,0,0,.923-.385,2.726,2.726,0,0,1,.829-3.013.215.215,0,0,0,.018-.024c.006,0,.014-.006.019-.012a2.824,2.824,0,0,1,2.1-.955,3.05,3.05,0,0,1,2.9,2.6.5.5,0,0,0,.62.392,2.326,2.326,0,0,1,.6-.09,2.66,2.66,0,0,1,2.527,2.77,2.877,2.877,0,0,1-.554,1.7A3.273,3.273,0,0,0,38.469,22.9a4.373,4.373,0,0,0-3.707.322A.5.5,0,0,0,34.664,23.925Z"/></svg>